<svg xmlns:svg="http://www.w3.org/2000/svg" xmlns="http://www.w3.org/2000/svg" width="78" height="78" version="1.1"><g transform="translate(0,-974.36218)"><path d="m72 974.4-66 0c-3.3 0-6 2.7-6 6l0 66c0 3.3 2.7 6 6 6l66 0c3.3 0 6-2.7 6-6l0-66c0-3.3-2.7-6-6-6zm-66 3c1.7 0 3 1.3 3 3 0 1.7-1.3 3-3 3-1.7 0-3-1.3-3-3 0-1.7 1.3-3 3-3zm0 72c-1.7 0-3-1.3-3-3 0-1.7 1.3-3 3-3 1.7 0 3 1.3 3 3 0 1.7-1.3 3-3 3zm33-1.5c-19.1 0-34.5-15.4-34.5-34.5 0-19.1 15.4-34.5 34.5-34.5 19.1 0 34.5 15.4 34.5 34.5 0 19.1-15.4 34.5-34.5 34.5zm33 1.5c-1.7 0-3-1.3-3-3 0-1.7 1.3-3 3-3 1.7 0 3 1.3 3 3 0 1.7-1.3 3-3 3zm0-66c-1.7 0-3-1.3-3-3 0-1.7 1.3-3 3-3 1.7 0 3 1.3 3 3 0 1.7-1.3 3-3 3z" fill="#333f4f"/></g></svg>