<svg xmlns:svg="http://www.w3.org/2000/svg" xmlns="http://www.w3.org/2000/svg" width="78" height="78" version="1.1"><style>.style0{fill:	#333f4f;}</style><g transform="translate(0,-974.40002)"><path d="m55.3 1009.7c-0.4-1.8-1.1-3.5-2.1-5 4.4-1.5 9-2.3 13.5-2.2-0.6-1.6-1.3-3.1-2.2-4.6-2.5-4.4-6-7.9-10.1-10.4-4.4 2.6-7.8 6.1-10.4 10.1-1.5-0.5-3.2-0.7-4.9-0.7-0.2 0-0.3 0-0.5 0 0.9-4.6 2.5-8.9 4.8-12.8-1.6-0.3-3.3-0.4-5.1-0.4-5.1 0-9.9 1.3-14.1 3.5 0.1 5.1 1.4 9.9 3.6 14.1-1.3 1.2-2.5 2.7-3.3 4.3-3.6-3.1-6.5-6.7-8.7-10.6-1.1 1.3-2 2.7-2.9 4.2-2.5 4.4-3.8 9.2-4 13.9 4.5 2.5 9.3 3.8 14 4 0.4 1.8 1.1 3.5 2 5-4.4 1.6-9 2.3-13.6 2.2 0.6 1.6 1.3 3.1 2.2 4.6 2.5 4.4 6 7.9 10.1 10.4 4.4-2.6 7.9-6.1 10.4-10.1 1.6 0.5 3.2 0.8 5 0.8 0.1 0 0.2 0 0.4 0-0.9 4.6-2.5 8.9-4.8 12.8 1.6 0.3 3.3 0.4 5 0.4 5.1 0 9.9-1.3 14.1-3.5-0.1-5.1-1.3-9.8-3.5-14.1 1.3-1.2 2.5-2.7 3.4-4.3 3.5 3 6.4 6.6 8.6 10.6 1.1-1.3 2-2.7 2.9-4.2 2.5-4.4 3.8-9.2 4-13.9-4.4-2.5-9.2-3.8-13.9-4zm-16.1 15.6c-6.6 0-12-5.4-12-12 0-6.6 5.4-12 12-12 6.6 0 12 5.4 12 12 0 6.6-5.4 12-12 12zm0-21c-5 0-9 4-9 9 0 5 4 9 9 9 5 0 9-4 9-9 0-5-4-9-9-9z" class="style0" fill="#333f4f"/></g></svg>