<?xml version="1.0" ?><svg enable-background="new 0 0 512 512" height="512px" id="svg2" version="1.1" viewBox="0 0 512 512" width="512px" xml:space="preserve" xmlns="http://www.w3.org/2000/svg" xmlns:cc="http://creativecommons.org/ns#" xmlns:dc="http://purl.org/dc/elements/1.1/" xmlns:inkscape="http://www.inkscape.org/namespaces/inkscape" xmlns:rdf="http://www.w3.org/1999/02/22-rdf-syntax-ns#" xmlns:sodipodi="http://sodipodi.sourceforge.net/DTD/sodipodi-0.dtd" xmlns:svg="http://www.w3.org/2000/svg"><defs id="defs6"><linearGradient gradientUnits="userSpaceOnUse" id="linearGradient3077" x1="310.02731" x2="310.02731" y1="87.538597" y2="28.008301"><stop id="stop3079" offset="0" style="stop-color:#343434"/><stop id="stop3081" offset="1" style="stop-color:#636363"/></linearGradient><linearGradient gradientUnits="userSpaceOnUse" id="linearGradient3084" x1="423.83591" x2="423.83591" y1="176.8345" y2="99.794899"><stop id="stop3086" offset="0" style="stop-color:#343434"/><stop id="stop3088" offset="1" style="stop-color:#636363"/></linearGradient><linearGradient gradientUnits="userSpaceOnUse" id="linearGradient3091" x1="467.60941" x2="467.60941" y1="325.6611" y2="245.1201"><stop id="stop3093" offset="0" style="stop-color:#343434"/><stop id="stop3095" offset="1" style="stop-color:#636363"/></linearGradient><linearGradient gradientUnits="userSpaceOnUse" id="linearGradient3098" x1="395.8223" x2="395.8223" y1="446.47269" y2="355.42679"><stop id="stop3100" offset="0" style="stop-color:#343434"/><stop id="stop3102" offset="1" style="stop-color:#636363"/></linearGradient><linearGradient gradientUnits="userSpaceOnUse" id="linearGradient3105" x1="268.00589" x2="268.00589" y1="499" y2="397.44821"><stop id="stop3107" offset="0" style="stop-color:#343434"/><stop id="stop3109" offset="1" style="stop-color:#636363"/></linearGradient><linearGradient gradientUnits="userSpaceOnUse" id="linearGradient3112" x1="131.436" x2="131.436" y1="458.72949" y2="336.16599"><stop id="stop3114" offset="0" style="stop-color:#343434"/><stop id="stop3116" offset="1" style="stop-color:#636363"/></linearGradient><linearGradient gradientUnits="userSpaceOnUse" id="linearGradient3119" x1="73.6567" x2="73.6567" y1="316.90631" y2="176.83501"><stop id="stop3121" offset="0" style="stop-color:#343434"/><stop id="stop3123" offset="1" style="stop-color:#636363"/></linearGradient><linearGradient gradientUnits="userSpaceOnUse" id="linearGradient3126" x1="147.1938" x2="147.1938" y1="173.33299" y2="12.25"><stop id="stop3128" offset="0" style="stop-color:#343434"/><stop id="stop3130" offset="1" style="stop-color:#636363"/></linearGradient></defs><g id="g8153" transform="matrix(1.0042984,0,0,1.004299,8565.1099,-23093.591)"><path d="m -8255.625,22994.75 c -7.2672,0.1 -14.5107,0.726 -21.5312,1.844 -36.3141,4.776 -71.305,31.493 -76.5626,72.656 -5.1651,40.44 13.388,87.333 39.6876,115.812 -0.5721,0.36 -1.1529,0.718 -1.7188,1.094 -10.5097,6.984 -18.6799,16.116 -24.4062,26.438 -38.1361,1.157 -65.5045,-40.023 -84.875,-60.094 -20.2999,-21.386 -59.0366,-19.397 -77.5626,0.906 -12.3909,14.207 -19.9497,31.813 -23.4687,50.344 -1.747,9.198 -2.502,18.626 -2.375,27.969 0.1,7.268 0.7257,14.51 1.8437,21.531 4.776,36.314 31.4933,71.305 72.6563,76.562 40.4399,5.166 87.3329,-13.388 115.8125,-39.687 0.359,0.572 0.7177,1.153 1.0938,1.719 6.9843,10.51 16.1465,18.68 26.4687,24.406 1.1562,38.136 -40.0543,65.504 -60.125,84.875 -21.387,20.299 -19.3965,59.036 0.9063,77.563 14.207,12.39 31.8116,19.949 50.3437,23.468 9.1974,1.747 18.6252,2.502 27.9687,2.375 7.2673,-0.1 14.5107,-0.725 21.5313,-1.843 36.314,-4.777 71.3049,-31.494 76.5625,-72.657 5.165,-40.44 -13.3879,-87.332 -39.6875,-115.812 0.576,-0.361 1.149,-0.716 1.7187,-1.094 l 11.7188,-9.594 c 5.1175,-5.118 9.3426,-10.796 12.7188,-16.875 38.1197,-1.133 65.4786,40.059 84.8437,60.125 20.3,21.387 59.0365,19.396 77.5625,-0.906 12.391,-14.207 19.9497,-31.812 23.4688,-50.344 1.747,-9.197 2.502,-18.624 2.375,-27.969 -0.1001,-7.266 -0.7258,-14.51 -1.8438,-21.531 -4.776,-36.314 -31.4932,-71.304 -72.6562,-76.562 -40.4441,-5.165 -87.3338,13.384 -115.8126,39.687 -0.3595,-0.573 -0.7174,-1.152 -1.0937,-1.718 -6.9843,-10.51 -16.1153,-18.681 -26.4375,-24.407 -1.1564,-38.136 40.023,-65.505 60.0938,-84.875 21.3869,-20.3 19.3965,-59.036 -0.9063,-77.562 -14.207,-12.391 -31.8116,-19.95 -50.3437,-23.469 -9.1973,-1.747 -18.6253,-2.502 -27.9688,-2.375 z m -17.5,193.938 c 19.5612,0.148 38.7017,9.7 50.3438,27.218 16.0587,24.165 12.8285,56.297 -7.6876,76.813 l -9.3437,7.687 c -28.0296,18.627 -65.8415,10.999 -84.4687,-17.031 -18.6273,-28.03 -11.0296,-65.873 17,-84.5 10.511,-6.985 22.4195,-10.277 34.1562,-10.187 z" id="path5465-7" style="fill:#000000;fill-opacity:1"/><path d="m -8232.9291,23300.973 c -25.8736,17.195 -60.7873,10.159 -77.9818,-15.715 -17.1945,-25.873 -10.1587,-60.787 15.715,-77.981 25.8736,-17.195 60.7873,-10.159 77.9818,15.715 14.8236,22.306 11.8644,51.97 -7.0736,70.908" id="path8150" style="fill:#000000;fill-opacity:1;fill-rule:nonzero;stroke:none" transform="matrix(0.61115299,0,0,0.61115299,-3222.9388,9037.812)"/></g></svg>