<?xml version="1.0" encoding="UTF-8" standalone="no"?>
<svg
   xmlns:dc="http://purl.org/dc/elements/1.1/"
   xmlns:cc="http://creativecommons.org/ns#"
   xmlns:rdf="http://www.w3.org/1999/02/22-rdf-syntax-ns#"
   xmlns:svg="http://www.w3.org/2000/svg"
   xmlns="http://www.w3.org/2000/svg"
   xmlns:sodipodi="http://sodipodi.sourceforge.net/DTD/sodipodi-0.dtd"
   xmlns:inkscape="http://www.inkscape.org/namespaces/inkscape"
   enable-background="new 0 0 100 100"
   id="Layer_1"
   version="1.1"
   viewBox="0 0 34 60"
   xml:space="preserve"
   inkscape:version="0.48.5 r10040"
   width="100%"
   height="100%"
   sodipodi:docname="thermistor.svg"><metadata
     id="metadata9"><rdf:RDF><cc:Work
         rdf:about=""><dc:format>image/svg+xml</dc:format><dc:type
           rdf:resource="http://purl.org/dc/dcmitype/StillImage" /><dc:title></dc:title></cc:Work></rdf:RDF></metadata><defs
     id="defs7" /><sodipodi:namedview
     pagecolor="#ffffff"
     bordercolor="#666666"
     borderopacity="1"
     objecttolerance="10"
     gridtolerance="10"
     guidetolerance="10"
     inkscape:pageopacity="0"
     inkscape:pageshadow="2"
     inkscape:window-width="1920"
     inkscape:window-height="1017"
     id="namedview5"
     showgrid="false"
     inkscape:zoom="9.44"
     inkscape:cx="14.446038"
     inkscape:cy="31.102902"
     inkscape:window-x="1912"
     inkscape:window-y="-8"
     inkscape:window-maximized="1"
     inkscape:current-layer="Layer_1" /><path
     d="m 28.458961,33.868126 0,-23.850709 C 28.458961,4.4946504 23.472429,3.7e-7 17.341661,3.7e-7 11.235045,3.7e-7 6.2656209,4.4598164 6.2263728,9.951729 l -6.2263728,0 0,3.98109 6.2233536,0 0,4.360289 -6.2233536,0 0,3.98109 6.2233536,0 0,4.362279 -6.2233536,0 0,3.98109 6.2233536,0 0,3.076387 C 2.545094,36.548395 0.4558828,40.616074 0.4558828,44.999254 0.4558828,53.270963 7.9804648,60 17.227942,60 26.475418,60 34,53.270963 34,44.999254 33.998,40.716596 31.991298,36.710625 28.458961,33.868126 z m -11.232026,22.1896 c -7.049578,0 -12.7858515,-4.960438 -12.7858515,-11.058472 0,-3.397861 1.787302,-6.563822 4.905017,-8.682757 0.5394105,-0.369246 0.8624535,-0.976363 0.8624535,-1.624285 l 0,-4.07365 1.639367,0 0,-3.98109 -1.639367,0 0,-4.362279 1.639367,0 0,-3.98109 -1.639367,0 0,-4.360289 1.639367,0 0,-3.981089 -1.632322,0 c 0.04227,-3.3182386 3.218351,-6.0094556 7.126062,-6.0094556 3.931863,0 7.131093,2.726052 7.131093,6.0751436 l 0,24.824085 c 0,0.636975 0.311973,1.234138 0.83327,1.603384 2.991919,2.115949 4.706763,5.232147 4.706763,8.554367 -10e-4,6.097039 -5.736274,11.057477 -12.785852,11.057477 z m 3.154951,-17.971635 c -2.070513,-0.875317 -3.958243,-0.865213 -5.979814,-9.95e-4 -2.62359,1.139587 -4.4612111,3.725305 -4.4612111,6.741975 0,4.069669 3.3360961,7.368002 7.4501111,7.368002 4.115022,0 7.450112,-3.299328 7.450112,-7.368002 0,-3.015675 -1.836614,-5.600398 -4.459198,-6.74098 z m -4.323339,5.253048 c -0.646086,1.148545 -1.924168,1.665091 -2.856061,1.152526 -0.931892,-0.512566 -1.163356,-1.858174 -0.518277,-3.007714 0.646086,-1.148544 1.924168,-1.665091 2.85606,-1.152525 0.931893,0.512565 1.163357,1.859169 0.518278,3.007713 z"
     id="path3"
     style="fill:#333f4f;fill-opacity:1"
     inkscape:connector-curvature="0"
     sodipodi:nodetypes="csscccccccccccccssccsscsccccccccccccsssccsccsssccscsc" /></svg>